<svg xmlns="http://www.w3.org/2000/svg" width="85" height="15" viewBox="0 0 85 15"><path d="M6.49247 11.1467C6.53825 11.0975 6.59345 11.0581 6.65478 11.0308C6.71611 11.0035 6.78232 10.9888 6.84946 10.9876C6.91659 10.9864 6.98328 10.9988 7.04554 11.0239C7.1078 11.0491 7.16435 11.0865 7.21183 11.134C7.25931 11.1815 7.29674 11.238 7.32189 11.3003C7.34703 11.3625 7.35938 11.4292 7.3582 11.4963C7.35702 11.5635 7.34232 11.6297 7.31499 11.691C7.28766 11.7524 7.24826 11.8076 7.19914 11.8533L4.86581 14.1867C4.82003 14.2358 4.76483 14.2752 4.7035 14.3025C4.64216 14.3298 4.57596 14.3445 4.50882 14.3457C4.44168 14.3469 4.375 14.3346 4.31274 14.3094C4.25048 14.2843 4.19393 14.2468 4.14645 14.1994C4.09897 14.1519 4.06154 14.0953 4.03639 14.0331C4.01124 13.9708 3.99889 13.9041 4.00008 13.837C4.00126 13.7699 4.01596 13.7036 4.04328 13.6423C4.07061 13.581 4.11001 13.5258 4.15914 13.48L6.49247 11.1467ZM1.49247 12.1467C1.53825 12.0975 1.59345 12.0581 1.65478 12.0308C1.71611 12.0035 1.78232 11.9888 1.84946 11.9876C1.91659 11.9864 1.98328 11.9988 2.04554 12.0239C2.1078 12.0491 2.16435 12.0865 2.21183 12.134C2.25931 12.1815 2.29674 12.238 2.32189 12.3003C2.34703 12.3625 2.35938 12.4292 2.3582 12.4963C2.35702 12.5635 2.34232 12.6297 2.31499 12.691C2.28766 12.7524 2.24826 12.8076 2.19914 12.8533L1.19914 13.8533C1.15336 13.9025 1.09816 13.9419 1.03683 13.9692C0.975498 13.9965 0.909289 14.0112 0.842154 14.0124C0.775019 14.0136 0.708333 14.0012 0.646074 13.9761C0.583815 13.9509 0.527259 13.9135 0.47978 13.866C0.432301 13.8185 0.394871 13.762 0.369724 13.6997C0.344576 13.6375 0.332227 13.5708 0.333411 13.5037C0.334596 13.4365 0.34929 13.3703 0.376618 13.309C0.403946 13.2476 0.443348 13.1924 0.492472 13.1467L1.49247 12.1467ZM10.7138 7.90867C10.7818 7.586 11.2431 7.586 11.3111 7.90867L11.4151 8.42667C11.5331 9.01733 11.9951 9.48 12.5858 9.59867L13.1038 9.70133C13.4171 9.76733 13.4258 10.2027 13.1325 10.2913L12.5858 10.4007C12.2969 10.4586 12.0315 10.6008 11.8232 10.8092C11.6149 11.0176 11.4729 11.283 11.4151 11.572L11.3111 12.0893L11.2971 12.13C11.2058 12.392 10.8565 12.3947 10.7425 12.1733L10.7238 12.12L10.6118 11.57C10.5535 11.2815 10.4113 11.0167 10.2031 10.8088C9.99479 10.6008 9.72971 10.4591 9.44114 10.4013L8.92114 10.2973C8.60847 10.2313 8.59847 9.79733 8.89181 9.708L9.43847 9.59867C9.72774 9.54091 9.99342 9.39877 10.202 9.19019C10.4106 8.98161 10.5527 8.71593 10.6105 8.42667L10.7138 7.90867ZM5.15914 8.48C5.20491 8.43088 5.26011 8.39147 5.32145 8.36415C5.38278 8.33682 5.44899 8.32212 5.51612 8.32094C5.58326 8.31975 5.64994 8.3321 5.7122 8.35725C5.77446 8.3824 5.83102 8.41983 5.8785 8.46731C5.92598 8.51479 5.96341 8.57134 5.98855 8.6336C6.0137 8.69586 6.02605 8.76255 6.02487 8.82968C6.02368 8.89682 6.00899 8.96303 5.98166 9.02436C5.95433 9.08569 5.91493 9.14089 5.8658 9.18667L3.53247 11.52C3.4867 11.5691 3.4315 11.6085 3.37016 11.6359C3.30883 11.6632 3.24262 11.6779 3.17549 11.6791C3.10835 11.6802 3.04167 11.6679 2.97941 11.6427C2.91715 11.6176 2.86059 11.5802 2.81311 11.5327C2.76563 11.4852 2.7282 11.4287 2.70306 11.3664C2.67791 11.3041 2.66556 11.2375 2.66674 11.1703C2.66793 11.1032 2.68262 11.037 2.70995 10.9756C2.73728 10.9143 2.77668 10.8591 2.82581 10.8133L5.15914 8.48ZM2.82581 6.81333C2.87158 6.76421 2.92678 6.72481 2.98811 6.69748C3.04945 6.67015 3.11566 6.65546 3.18279 6.65427C3.24993 6.65309 3.31661 6.66544 3.37887 6.69058C3.44113 6.71573 3.49768 6.75316 3.54516 6.80064C3.59264 6.84812 3.63007 6.90468 3.65522 6.96694C3.68037 7.02919 3.69272 7.09588 3.69153 7.16301C3.69035 7.23015 3.67565 7.29636 3.64833 7.35769C3.621 7.41903 3.5816 7.47423 3.53247 7.52L0.865806 10.1867C0.820031 10.2358 0.764831 10.2752 0.703498 10.3025C0.642165 10.3298 0.575956 10.3445 0.508821 10.3457C0.441685 10.3469 0.374999 10.3346 0.312741 10.3094C0.250482 10.2843 0.193926 10.2468 0.146447 10.1994C0.0989675 10.1519 0.0615377 10.0953 0.0363904 10.0331C0.011243 9.97081 -0.00110671 9.90412 7.78141e-05 9.83699C0.00126234 9.76985 0.015957 9.70364 0.043285 9.64231C0.070613 9.58098 0.110014 9.52578 0.159139 9.48L2.82581 6.81333ZM7.2098 1.38C7.31714 0.873333 8.04114 0.873333 8.14847 1.38L8.31047 2.19333C8.40121 2.64798 8.62458 3.06557 8.95241 3.39339C9.28024 3.72122 9.69782 3.9446 10.1525 4.03533L10.9651 4.19733C11.4571 4.30067 11.4718 4.98467 11.0105 5.124L10.1525 5.296C9.69791 5.38669 9.28039 5.60997 8.95257 5.93767C8.62476 6.26537 8.40133 6.68281 8.31047 7.13733L8.14847 7.95L8.12647 8.01333C7.98314 8.42467 7.43314 8.43 7.25447 8.082L7.22447 7.998L7.0498 7.13267C6.95814 6.67938 6.73459 6.26329 6.40723 5.93664C6.07987 5.60998 5.66329 5.38734 5.2098 5.29667L4.39314 5.134C3.90181 5.03067 3.88647 4.34733 4.34714 4.20733L5.20581 4.03533C5.66033 3.94448 6.07777 3.72105 6.40547 3.39323C6.73317 3.06542 6.95645 2.64789 7.04714 2.19333L7.2098 1.38Z" fill="#8B949E"/><path d="M17.8511 12L15.7421 6.1176H16.6655L17.5091 8.58L18.4211 11.2362H18.4667L19.3787 8.58L20.2223 6.1176H21.1229L19.0139 12H17.8511ZM25.6328 4.818C25.3668 4.818 25.1806 4.7648 25.0742 4.6584C24.9678 4.5444 24.9146 4.4038 24.9146 4.2366V4.0542C24.9146 3.887 24.9678 3.7502 25.0742 3.6438C25.1806 3.5298 25.3668 3.4728 25.6328 3.4728C25.8988 3.4728 26.085 3.5298 26.1914 3.6438C26.2978 3.7502 26.351 3.887 26.351 4.0542V4.2366C26.351 4.4038 26.2978 4.5444 26.1914 4.6584C26.085 4.7648 25.8988 4.818 25.6328 4.818ZM23.0564 11.2248H25.1768V6.8928H23.0564V6.1176H26.0888V11.2248H28.0724V12H23.0564V11.2248ZM29.7666 3.564H30.6786V7.0752H30.7242C31.1042 6.3456 31.7084 5.9808 32.5368 5.9808C33.2588 5.9808 33.8212 6.2506 34.224 6.7902C34.6344 7.3298 34.8396 8.086 34.8396 9.0588C34.8396 10.0316 34.6344 10.7878 34.224 11.3274C33.8212 11.867 33.2588 12.1368 32.5368 12.1368C31.7084 12.1368 31.1042 11.772 30.7242 11.0424H30.6786V12H29.7666V3.564ZM32.1834 11.3274C32.7154 11.3274 33.1258 11.1678 33.4146 10.8486C33.711 10.5218 33.8592 10.0924 33.8592 9.5604V8.5572C33.8592 8.0252 33.711 7.5996 33.4146 7.2804C33.1258 6.9536 32.7154 6.7902 32.1834 6.7902C31.9782 6.7902 31.7844 6.8168 31.602 6.87C31.4196 6.9232 31.26 7.003 31.1232 7.1094C30.9864 7.2082 30.8762 7.3336 30.7926 7.4856C30.7166 7.63 30.6786 7.801 30.6786 7.9986V10.119C30.6786 10.3166 30.7166 10.4914 30.7926 10.6434C30.8762 10.7878 30.9864 10.9132 31.1232 11.0196C31.26 11.1184 31.4196 11.1944 31.602 11.2476C31.7844 11.3008 31.9782 11.3274 32.1834 11.3274ZM39.0417 12.1368C38.6161 12.1368 38.2323 12.0646 37.8903 11.9202C37.5559 11.7758 37.2671 11.5706 37.0239 11.3046C36.7883 11.031 36.6059 10.708 36.4767 10.3356C36.3475 9.9556 36.2829 9.5338 36.2829 9.0702C36.2829 8.599 36.3475 8.1734 36.4767 7.7934C36.6135 7.4134 36.7997 7.0904 37.0353 6.8244C37.2709 6.5508 37.5521 6.3418 37.8789 6.1974C38.2133 6.053 38.5819 5.9808 38.9847 5.9808C39.3799 5.9808 39.7371 6.053 40.0563 6.1974C40.3831 6.3418 40.6605 6.5432 40.8885 6.8016C41.1165 7.0524 41.2913 7.3526 41.4129 7.7022C41.5345 8.0518 41.5953 8.4356 41.5953 8.8536V9.2868H37.2405V9.5604C37.2405 9.8188 37.2823 10.0582 37.3659 10.2786C37.4495 10.499 37.5673 10.689 37.7193 10.8486C37.8789 11.0082 38.0689 11.1336 38.2893 11.2248C38.5173 11.3084 38.7681 11.3502 39.0417 11.3502C39.4369 11.3502 39.7789 11.259 40.0677 11.0766C40.3565 10.8942 40.5769 10.6434 40.7289 10.3242L41.4015 10.7802C41.2267 11.1754 40.9341 11.5022 40.5237 11.7606C40.1209 12.0114 39.6269 12.1368 39.0417 12.1368ZM38.9847 6.7332C38.7339 6.7332 38.5021 6.7788 38.2893 6.87C38.0765 6.9612 37.8903 7.0866 37.7307 7.2462C37.5787 7.4058 37.4571 7.5958 37.3659 7.8162C37.2823 8.029 37.2405 8.2646 37.2405 8.523V8.6028H40.6149V8.4774C40.6149 8.219 40.5731 7.9834 40.4895 7.7706C40.4135 7.5578 40.3033 7.3754 40.1589 7.2234C40.0221 7.0638 39.8511 6.9422 39.6459 6.8586C39.4483 6.775 39.2279 6.7332 38.9847 6.7332ZM44.1217 9.0132V8.0556H47.4277V9.0132H44.1217ZM49.8058 12V6.1176H50.6494V6.8016H50.695C50.7862 6.5736 50.9154 6.3798 51.0826 6.2202C51.2498 6.0606 51.4968 5.9808 51.8236 5.9808C52.1656 5.9808 52.4202 6.0682 52.5874 6.243C52.7546 6.4102 52.8572 6.6306 52.8952 6.9042H52.9294C53.0358 6.6382 53.1878 6.4178 53.3854 6.243C53.583 6.0682 53.8566 5.9808 54.2062 5.9808C54.685 5.9808 55.0042 6.148 55.1638 6.4824C55.331 6.8168 55.4146 7.2956 55.4146 7.9188V12H54.571V8.067C54.571 7.5654 54.5178 7.2196 54.4114 7.0296C54.3126 6.832 54.1264 6.7332 53.8528 6.7332C53.6096 6.7332 53.412 6.813 53.26 6.9726C53.108 7.1246 53.032 7.3602 53.032 7.6794V12H52.1884V8.067C52.1884 7.5654 52.1352 7.2196 52.0288 7.0296C51.93 6.832 51.7476 6.7332 51.4816 6.7332C51.2384 6.7332 51.037 6.813 50.8774 6.9726C50.7254 7.1246 50.6494 7.3602 50.6494 7.6794V12H49.8058ZM59.5483 12.1368C59.1227 12.1368 58.7389 12.0646 58.3969 11.9202C58.0625 11.7758 57.7737 11.5706 57.5305 11.3046C57.2949 11.031 57.1125 10.708 56.9833 10.3356C56.8541 9.9556 56.7895 9.5338 56.7895 9.0702C56.7895 8.599 56.8541 8.1734 56.9833 7.7934C57.1201 7.4134 57.3063 7.0904 57.5419 6.8244C57.7775 6.5508 58.0587 6.3418 58.3855 6.1974C58.7199 6.053 59.0885 5.9808 59.4913 5.9808C59.8865 5.9808 60.2437 6.053 60.5629 6.1974C60.8897 6.3418 61.1671 6.5432 61.3951 6.8016C61.6231 7.0524 61.7979 7.3526 61.9195 7.7022C62.0411 8.0518 62.1019 8.4356 62.1019 8.8536V9.2868H57.7471V9.5604C57.7471 9.8188 57.7889 10.0582 57.8725 10.2786C57.9561 10.499 58.0739 10.689 58.2259 10.8486C58.3855 11.0082 58.5755 11.1336 58.7959 11.2248C59.0239 11.3084 59.2747 11.3502 59.5483 11.3502C59.9435 11.3502 60.2855 11.259 60.5743 11.0766C60.8631 10.8942 61.0835 10.6434 61.2355 10.3242L61.9081 10.7802C61.7333 11.1754 61.4407 11.5022 61.0303 11.7606C60.6275 12.0114 60.1335 12.1368 59.5483 12.1368ZM59.4913 6.7332C59.2405 6.7332 59.0087 6.7788 58.7959 6.87C58.5831 6.9612 58.3969 7.0866 58.2373 7.2462C58.0853 7.4058 57.9637 7.5958 57.8725 7.8162C57.7889 8.029 57.7471 8.2646 57.7471 8.523V8.6028H61.1215V8.4774C61.1215 8.219 61.0797 7.9834 60.9961 7.7706C60.9201 7.5578 60.8099 7.3754 60.6655 7.2234C60.5287 7.0638 60.3577 6.9422 60.1525 6.8586C59.9549 6.775 59.7345 6.7332 59.4913 6.7332ZM66.5663 12C66.1179 12 65.7873 11.8746 65.5745 11.6238C65.3693 11.373 65.2667 11.05 65.2667 10.6548V6.8928H63.3059V6.1176H64.7651C64.9627 6.1176 65.0995 6.0796 65.1755 6.0036C65.2591 5.92 65.3009 5.7794 65.3009 5.5818V4.0428H66.1787V6.1176H68.8577V6.8928H66.1787V11.2248H68.8577V12H66.5663ZM73.2194 12.1368C72.7938 12.1368 72.41 12.0646 72.068 11.9202C71.7336 11.7758 71.4448 11.5706 71.2016 11.3046C70.966 11.031 70.7836 10.708 70.6544 10.3356C70.5252 9.9556 70.4606 9.5338 70.4606 9.0702C70.4606 8.599 70.5252 8.1734 70.6544 7.7934C70.7912 7.4134 70.9774 7.0904 71.213 6.8244C71.4486 6.5508 71.7298 6.3418 72.0566 6.1974C72.391 6.053 72.7596 5.9808 73.1624 5.9808C73.5576 5.9808 73.9148 6.053 74.234 6.1974C74.5608 6.3418 74.8382 6.5432 75.0662 6.8016C75.2942 7.0524 75.469 7.3526 75.5906 7.7022C75.7122 8.0518 75.773 8.4356 75.773 8.8536V9.2868H71.4182V9.5604C71.4182 9.8188 71.46 10.0582 71.5436 10.2786C71.6272 10.499 71.745 10.689 71.897 10.8486C72.0566 11.0082 72.2466 11.1336 72.467 11.2248C72.695 11.3084 72.9458 11.3502 73.2194 11.3502C73.6146 11.3502 73.9566 11.259 74.2454 11.0766C74.5342 10.8942 74.7546 10.6434 74.9066 10.3242L75.5792 10.7802C75.4044 11.1754 75.1118 11.5022 74.7014 11.7606C74.2986 12.0114 73.8046 12.1368 73.2194 12.1368ZM73.1624 6.7332C72.9116 6.7332 72.6798 6.7788 72.467 6.87C72.2542 6.9612 72.068 7.0866 71.9084 7.2462C71.7564 7.4058 71.6348 7.5958 71.5436 7.8162C71.46 8.029 71.4182 8.2646 71.4182 8.523V8.6028H74.7926V8.4774C74.7926 8.219 74.7508 7.9834 74.6672 7.7706C74.5912 7.5578 74.481 7.3754 74.3366 7.2234C74.1998 7.0638 74.0288 6.9422 73.8236 6.8586C73.626 6.775 73.4056 6.7332 73.1624 6.7332ZM77.4102 11.2248H79.1316V6.8928H77.4102V6.1176H80.0436V7.5996H80.1006C80.2222 7.136 80.4502 6.775 80.7846 6.5166C81.1266 6.2506 81.5598 6.1176 82.0842 6.1176H82.905V7.0296H81.7992C81.2748 7.0296 80.8492 7.1816 80.5224 7.4856C80.2032 7.7896 80.0436 8.1886 80.0436 8.6826V11.2248H82.3236V12H77.4102V11.2248Z" fill="#8B949E"/></svg>